# xmcd
#
# Track frame offsets:
#	150
#	15308
#	31379
#	46033
#	59091
#	74120
#	87409
#	102055
#	114705
#	129538
#	141922
#	154654
#	166552
#	181067
#
# Disc length: 2652 seconds
#
# Revision: 1
# Processed by: cddbd v1.5.2PL0 Copyright (c) Steve Scherf et al.
# Submitted via: audiograbber 1.83.01
#
DISCID=b60a5a0e
DTITLE=Captain Cook - Santiago - Lieder von Wellen, Wind und Meer 
DYEAR=2012
DGENRE=Intrumental
TTITLE0=Santiago
TTITLE1=Die rote Sonne von Barbados
TTITLE2=Wir lagen vor Madagaskar
TTITLE3=Vaya con dios
TTITLE4=Wo meine Sonne scheint
TTITLE5=Abschied von daheim
TTITLE6=Schön ist die Liebe im Hafen
TTITLE7=Die Gitarre und das Meer
TTITLE8=Abends am Hafen
TTITLE9=Hamburger Veermaster
TTITLE10=Zuhause, Zuhause
TTITLE11=Mitternacht auf Korsika
TTITLE12=Unter der roten Laterne von St. Pauli
TTITLE13=Fliege mit mir in die Heimat
EXTD=Captain Cook und seine singenden Saxophone\nRechtzeitig zur Sommerzeit beg
EXTD=leiten wir den Captain und seine singenden Saxophone wieder aufs Meer mit 
EXTD=den schönsten "Liedern von Wellen und Meer".\n
EXTT0=
EXTT1=
EXTT2=
EXTT3=
EXTT4=
EXTT5=
EXTT6=
EXTT7=
EXTT8=
EXTT9=
EXTT10=
EXTT11=
EXTT12=
EXTT13=
PLAYORDER=
